<svg version="1" xmlns="http://www.w3.org/2000/svg" width="400" height="400" viewBox="0 0 300.000000 300.000000"><path d="M193 19.1c-21.9 7.6-49.4 29.5-70 56-10.3 13.1-9.8 12.7-16.5 13.3-3.3.3-9.3 1.2-13.2 2-4 .7-7.3 1.2-7.3.9 0-.2-.9.1-1.9.7-1.8.9-2.1.3-4.2-8.3-1.8-7.3-2.3-12.1-2.3-23.2-.1-12.7.1-14.4 2.2-18.2 2.8-5.3 6-7.5 11.4-7.8 7.3-.3 12 1.3 29.4 10 9.8 5 17.2 8.1 17.7 7.6 2.4-2.4-8.9-15.2-20.9-23.7-13.6-9.7-30.1-12.7-41.6-7.7-8.1 3.6-15.3 13.6-17.9 24.9-2.3 10.4-1.5 35.1 1.6 49.5.6 2.5.2 2.7-7.2 5.4-9.6 3.4-23.7 10.3-30 14.7C14.7 120.3 6.5 129 3.4 135 .9 139.8.5 141.6.5 149c.1 10.6 2.4 16 10.4 23.7 9.4 9 31.3 18.3 43.2 18.3 7.2 0 7.1-.2-13-18-9.8-8.8-12.7-12.5-13.7-17.6-1.2-6.4 6-14.4 18.8-20.6 7.5-3.6 21.4-8.5 22.1-7.7.3.2 2.3 5 4.6 10.7l4.1 10.4-1.9 4.1c-8.2 18.2-16.3 42.4-19.2 57.1-7.2 37.3-1.5 62.5 16.5 73 16.8 9.7 41.3 1.8 67-21.6l8.2-7.5 5.9 5.4c13.1 11.9 31 22.7 43 25.8 23.2 6.1 41-5.4 46.1-29.7 1.3-6.3 1.4-30.4.1-32.5-.3-.5-.8-2.5-1.1-4.5-4.1-25.8-23.2-68.6-41-91.5-5.3-6.9-5.4-7.2-2.8-6.8 36.8 6 58.8 13.7 69.6 24.1 7 6.8 7.4 12.1 1.4 19.8-3.1 4-16 15.5-24.7 21.9-2.5 1.7-4.3 3.7-4 4.2.7 1.7 12.5.8 19.6-1.5 28.1-9.3 42.3-26.3 37.9-45.4-1.7-7.1-3.7-10.5-10.1-17.5-9.3-10-26.7-19.9-46-26-8.9-2.9-28.6-7.7-34.5-8.5-2.5-.3-5.6-.8-7-1.1-4.2-.9-9.1-1.4-17.5-2.1-4.4-.3-9.1-.7-10.4-.9-1.4-.3-7.8-.5-14.3-.6-6.5 0-11.8-.4-11.8-.8s3.5-4.7 7.7-9.6c21.9-25.7 42.2-39.9 55.7-39 10.8.7 15 10.8 16 39 .5 13.5 1 16.5 3 16.5 3.1 0 8.6-19.7 9.1-32.6.7-19.8-5.9-34-18.5-39.8-6.2-2.8-18.5-3-26-.5zm-15.8 98.3c1.2.3 4.4.5 6.9.5l4.6.1 1.2 7.2c1.3 7.8 5.2 21.9 10.6 38.3 8.1 24.8 11.6 41.7 12 58 .4 17.8-2.7 26.2-10.2 27.2-6.9.9-20.8-5.8-32.1-15.4l-3.3-2.8 8.6-13c13.3-20 25.2-46 22.4-48.9-1.8-2-17.2 12.2-35.7 32.8l-11.5 12.8-2.6-2.8c-13.7-15.1-41.1-55.8-41.1-61.2 0-1.5 12.2-25.5 15.6-30.7 1.4-2.2 2.4-2.4 9.2-2.7 10-.4 42.4.1 45.4.6zm-78.7 72.4c6.7 11.2 17.6 27.3 24.3 35.6l6.4 7.9-2.9 2.3c-13.5 10.9-30.8 16.3-36.1 11.4-7-6.6-6.6-30.5 1-56.6 1.1-4.1 2.4-7.4 2.7-7.4.3 0 2.4 3.1 4.6 6.8z"/><path d="M146 131c-8.1 1.5-13.9 6.9-15.8 14.5-2.1 8 .6 15.2 7.5 20.5 4.2 3.2 5.2 3.5 11.4 3.5 5.9 0 7.2-.4 11-3.1 14.5-10.5 9.6-32.2-8.1-35.6-1.4-.3-4.1-.2-6 .2z"/></svg>