<svg width="100%" height="100%" viewBox="0 0 388 167" version="1.1" xmlns="http://www.w3.org/2000/svg" xmlns:xlink="http://www.w3.org/1999/xlink" xml:space="preserve" style="fill-rule:evenodd;clip-rule:evenodd;stroke-linejoin:round;stroke-miterlimit:1.41421;"><path d="M2.499,86.722l0,-42.736l53.358,0l0,-2.5l-53.358,0l0,-38.987l56.731,0l0,-2.499l-59.23,0l0,89.221l59.73,0l0,-2.499l-57.23,0l-0.001,0Zm105.341,-61.731l-22.117,29.116l-21.619,-29.115l-3.249,0l23.368,30.99l-25.618,33.238l2.999,0l24.117,-31.365l24.242,31.365l3.124,0l-25.741,-33.239l23.492,-30.99l-2.999,0l0.001,0.001Zm12.746,86.222l0,-39.987l0.249,0c1.5,5.832 4.458,10.518 8.873,14.058c4.415,3.541 10.038,5.311 16.869,5.311c4.415,0 8.331,-0.895 11.747,-2.686c3.415,-1.791 6.268,-4.228 8.559,-7.31c2.291,-3.083 4.041,-6.665 5.249,-10.747c1.207,-4.082 1.812,-8.372 1.812,-12.87c0,-4.832 -0.626,-9.29 -1.875,-13.371c-1.25,-4.082 -3.062,-7.623 -5.436,-10.622c-2.374,-2.999 -5.248,-5.332 -8.622,-6.997c-3.374,-1.667 -7.185,-2.5 -11.434,-2.5c-3.249,0 -6.269,0.479 -9.059,1.437c-2.791,0.959 -5.269,2.312 -7.435,4.061c-2.179,1.763 -4.075,3.849 -5.624,6.186c-1.582,2.374 -2.79,4.977 -3.624,7.81l-0.249,0l0,-17.995l-2.499,0l0,86.222l2.499,0Zm25.991,-22.993c-7.83,0 -14.12,-2.686 -18.869,-8.06c-4.748,-5.373 -7.122,-13.1 -7.122,-23.18c0,-4.165 0.583,-8.122 1.749,-11.871c1.167,-3.748 2.853,-7.039 5.061,-9.871c2.208,-2.833 4.936,-5.082 8.184,-6.748c3.249,-1.666 6.915,-2.5 10.997,-2.5c4.165,0 7.81,0.834 10.934,2.5c3.124,1.666 5.707,3.936 7.748,6.81c2.04,2.874 3.582,6.165 4.623,9.872c1.041,3.707 1.562,7.643 1.562,11.808c0,3.75 -0.479,7.478 -1.437,11.184c-0.958,3.708 -2.437,7.04 -4.436,9.998c-1.999,2.956 -4.56,5.372 -7.685,7.247c-3.124,1.874 -6.894,2.811 -11.309,2.811l0,0Zm41.112,1l0,-36.363c0,-3.499 0.499,-6.915 1.5,-10.247c0.999,-3.332 2.54,-6.269 4.623,-8.809c2.083,-2.541 4.727,-4.541 7.935,-5.999c3.207,-1.458 7.018,-2.062 11.434,-1.812l0,-2.499c-3.833,-0.082 -7.185,0.333 -10.059,1.25c-2.875,0.916 -5.353,2.166 -7.436,3.749c-2.082,1.582 -3.748,3.436 -4.998,5.561c-1.248,2.121 -2.175,4.416 -2.749,6.81l-0.25,-0.001l0,-15.87l-2.499,0l0,64.23l2.499,0l0,0Zm28.615,-31.615l53.733,0c0.167,-4.415 -0.27,-8.663 -1.312,-12.746c-1.041,-4.082 -2.708,-7.706 -4.998,-10.871c-2.291,-3.166 -5.249,-5.707 -8.873,-7.623c-3.624,-1.916 -7.935,-2.874 -12.933,-2.874c-3.582,0 -7.081,0.75 -10.497,2.25c-3.415,1.499 -6.414,3.686 -8.996,6.56c-2.583,2.874 -4.666,6.393 -6.248,10.56c-1.583,4.164 -2.374,8.913 -2.374,14.244c0,4.749 0.541,9.185 1.624,13.308c1.083,4.124 2.749,7.707 4.998,10.747c2.25,3.041 5.145,5.394 8.685,7.06c3.54,1.666 7.81,2.458 12.808,2.374c7.331,0 13.496,-2.062 18.494,-6.185c4.999,-4.124 7.956,-9.934 8.873,-17.432l-2.5,0c-1.082,7.082 -3.853,12.392 -8.309,15.932c-4.458,3.541 -10.059,5.311 -16.808,5.311c-4.582,0 -8.455,-0.791 -11.621,-2.374c-3.165,-1.582 -5.748,-3.749 -7.748,-6.498c-1.999,-2.749 -3.477,-5.977 -4.435,-9.685c-0.959,-3.706 -1.479,-7.726 -1.562,-12.058Zm51.233,-2.499l-51.233,0c0.249,-4.499 1.082,-8.539 2.498,-12.121c1.417,-3.583 3.271,-6.644 5.562,-9.184c2.29,-2.541 4.957,-4.478 7.997,-5.811c3.04,-1.333 6.31,-2 9.809,-2c4.166,0 7.83,0.771 10.997,2.313c3.165,1.541 5.81,3.645 7.935,6.31c2.124,2.666 3.727,5.769 4.81,9.309c1.083,3.541 1.625,7.269 1.625,11.184Zm54.357,-11.121l2.5,0c0,-7.165 -2.083,-12.371 -6.248,-15.62c-4.166,-3.249 -9.831,-4.874 -16.995,-4.874c-3.999,0 -7.373,0.501 -10.122,1.5c-2.749,0.999 -4.998,2.291 -6.748,3.873c-1.749,1.583 -2.998,3.333 -3.748,5.249c-0.75,1.916 -1.125,3.749 -1.125,5.498c0,3.499 0.625,6.29 1.875,8.372c1.249,2.083 3.207,3.708 5.872,4.874c1.833,0.832 3.915,1.582 6.248,2.25c2.333,0.666 5.041,1.374 8.123,2.123c2.749,0.668 5.456,1.334 8.122,2c2.666,0.666 5.019,1.562 7.06,2.686c2.042,1.125 3.707,2.562 4.999,4.312c1.291,1.749 1.936,4.04 1.936,6.872c0,2.749 -0.645,5.082 -1.936,6.998c-1.28,1.906 -2.966,3.506 -4.936,4.686c-1.999,1.208 -4.228,2.082 -6.685,2.624c-2.458,0.541 -4.853,0.812 -7.185,0.812c-7.581,0 -13.392,-1.687 -17.433,-5.06c-4.04,-3.374 -6.06,-8.685 -6.06,-15.933l-2.499,0c0,8.081 2.187,13.996 6.56,17.745c4.374,3.748 10.851,5.623 19.432,5.623c2.748,-0.001 5.518,-0.313 8.31,-0.938c2.79,-0.625 5.289,-1.645 7.497,-3.061c2.188,-1.397 4.027,-3.278 5.373,-5.498c1.374,-2.25 2.062,-4.999 2.062,-8.248c0,-3.082 -0.604,-5.581 -1.812,-7.497c-1.208,-1.916 -2.791,-3.499 -4.749,-4.749c-1.957,-1.249 -4.165,-2.228 -6.622,-2.936c-2.472,-0.712 -4.95,-1.4 -7.436,-2.062c-3.058,-0.803 -6.12,-1.594 -9.184,-2.374c-2.624,-0.667 -5.061,-1.458 -7.31,-2.375c-2.166,-0.916 -3.894,-2.228 -5.186,-3.936c-1.292,-1.707 -1.937,-4.144 -1.937,-7.31c0,-0.583 0.167,-1.624 0.5,-3.124c0.333,-1.5 1.125,-3.02 2.374,-4.561c1.25,-1.541 3.165,-2.915 5.748,-4.124c2.583,-1.207 6.123,-1.812 10.622,-1.812c3.082,0 5.893,0.334 8.434,1c2.541,0.667 4.728,1.729 6.561,3.187c1.833,1.458 3.249,3.311 4.248,5.56c1,2.25 1.5,4.999 1.5,8.248l0,0Zm57.856,0l2.499,0c0,-7.165 -2.082,-12.371 -6.247,-15.62c-4.166,-3.249 -9.831,-4.874 -16.995,-4.874c-3.999,0 -7.373,0.501 -10.122,1.5c-2.749,0.999 -4.998,2.291 -6.747,3.873c-1.75,1.583 -3,3.333 -3.75,5.249c-0.75,1.916 -1.124,3.749 -1.124,5.498c0,3.499 0.625,6.29 1.875,8.372c1.249,2.083 3.207,3.708 5.873,4.874c1.833,0.832 3.915,1.582 6.247,2.25c2.333,0.666 5.04,1.374 8.123,2.123c2.749,0.668 5.457,1.334 8.122,2c2.666,0.666 5.019,1.562 7.061,2.686c2.04,1.125 3.707,2.562 4.998,4.312c1.291,1.749 1.937,4.04 1.937,6.872c0,2.75 -0.646,5.082 -1.937,6.998c-1.281,1.906 -2.966,3.506 -4.935,4.686c-2.001,1.208 -4.229,2.082 -6.687,2.624c-2.457,0.541 -4.852,0.812 -7.185,0.812c-7.581,0 -13.391,-1.687 -17.431,-5.06c-4.041,-3.374 -6.061,-8.685 -6.061,-15.933l-2.499,0c0,8.081 2.186,13.996 6.56,17.745c4.374,3.748 10.851,5.623 19.431,5.623c2.75,0 5.52,-0.313 8.31,-0.938c2.79,-0.625 5.29,-1.645 7.498,-3.061c2.189,-1.397 4.027,-3.278 5.373,-5.498c1.375,-2.25 2.062,-4.999 2.062,-8.248c0,-3.082 -0.604,-5.581 -1.812,-7.497c-1.208,-1.916 -2.79,-3.499 -4.748,-4.749c-1.958,-1.249 -4.166,-2.228 -6.623,-2.936c-2.471,-0.712 -4.95,-1.4 -7.435,-2.062c-3.059,-0.803 -6.12,-1.594 -9.185,-2.374c-2.624,-0.667 -5.061,-1.458 -7.31,-2.375c-2.166,-0.916 -3.895,-2.228 -5.186,-3.936c-1.291,-1.707 -1.937,-4.144 -1.937,-7.31c0,-0.583 0.167,-1.624 0.5,-3.124c0.333,-1.5 1.125,-3.02 2.374,-4.561c1.25,-1.541 3.166,-2.915 5.748,-4.124c2.583,-1.207 6.123,-1.812 10.622,-1.812c3.083,0 5.894,0.334 8.435,1c2.541,0.667 4.727,1.729 6.56,3.187c1.833,1.458 3.249,3.311 4.249,5.56c1,2.25 1.5,4.999 1.5,8.248l-0.001,0Z" style="fill:#222;fill-rule:nonzero;"/><g><path d="M207.902,147.956l0,-50.414l4.676,0l0,46.16l20.25,0l0,4.254l-24.926,0Z" style="fill:url(#_connectloki_Linear1);fill-rule:nonzero;"/><path d="M255.328,148.8c-2.672,0 -5.068,-0.446 -7.189,-1.336c-2.121,-0.891 -3.932,-2.151 -5.432,-3.779c-1.5,-1.629 -2.648,-3.581 -3.445,-5.854c-0.797,-2.273 -1.196,-4.793 -1.196,-7.559c0,-3 0.422,-5.683 1.266,-8.05c0.844,-2.368 2.045,-4.377 3.604,-6.03c1.558,-1.652 3.439,-2.912 5.642,-3.779c2.203,-0.867 4.664,-1.301 7.383,-1.301c2.601,0 4.945,0.428 7.031,1.283c2.086,0.856 3.856,2.092 5.309,3.709c1.453,1.618 2.566,3.586 3.34,5.907c0.773,2.32 1.16,4.957 1.16,7.91c0,2.812 -0.405,5.373 -1.213,7.681c-0.809,2.309 -1.963,4.295 -3.463,5.959c-1.5,1.665 -3.328,2.954 -5.484,3.868c-2.157,0.914 -4.594,1.371 -7.313,1.371Zm0.352,-33.785c-1.969,0 -3.75,0.339 -5.344,1.019c-1.594,0.68 -2.959,1.67 -4.096,2.971c-1.136,1.301 -2.01,2.894 -2.619,4.781c-0.609,1.887 -0.914,4.025 -0.914,6.416c0,2.25 0.305,4.277 0.914,6.082c0.609,1.805 1.471,3.352 2.584,4.641c1.113,1.289 2.467,2.279 4.061,2.97c1.593,0.692 3.375,1.038 5.343,1.038c2.016,0 3.797,-0.334 5.344,-1.002c1.547,-0.668 2.86,-1.641 3.938,-2.918c1.078,-1.278 1.892,-2.842 2.443,-4.694c0.551,-1.851 0.826,-3.961 0.826,-6.328c0,-4.851 -1.078,-8.56 -3.234,-11.127c-2.156,-2.566 -5.239,-3.849 -9.246,-3.849Z" style="fill:url(#_connectloki_Linear2);fill-rule:nonzero;"/><path d="M303.07,147.956l-16.558,-17.543l-0.141,0l0,17.543l-4.5,0l0,-53.297l4.5,0l0,34.067l0.141,0l15.715,-16.77l5.871,0l-16.875,17.402l18.211,18.598l-6.364,0Z" style="fill:url(#_connectloki_Linear3);fill-rule:nonzero;"/><path d="M317.941,102.851c-0.867,0 -1.617,-0.305 -2.25,-0.915c-0.632,-0.609 -0.949,-1.382 -0.949,-2.32c0,-0.914 0.317,-1.67 0.949,-2.267c0.633,-0.598 1.383,-0.897 2.25,-0.897c0.446,0 0.868,0.076 1.266,0.229c0.398,0.152 0.744,0.369 1.037,0.65c0.293,0.281 0.527,0.615 0.703,1.002c0.176,0.387 0.264,0.814 0.264,1.283c0,0.445 -0.082,0.867 -0.246,1.266c-0.164,0.398 -0.399,0.744 -0.703,1.037c-0.305,0.293 -0.651,0.521 -1.037,0.685c-0.387,0.165 -0.815,0.247 -1.284,0.247Zm-2.214,45.105l0,-36l4.5,0l0,36l-4.5,0Z" style="fill:url(#_connectloki_Linear4);fill-rule:nonzero;"/><path d="M333.902,148.659c-0.937,0 -1.734,-0.328 -2.39,-0.984c-0.657,-0.656 -0.985,-1.453 -0.985,-2.391c0,-0.961 0.323,-1.769 0.967,-2.426c0.645,-0.656 1.447,-0.984 2.408,-0.984c0.469,0 0.909,0.088 1.319,0.264c0.41,0.175 0.767,0.41 1.072,0.703c0.305,0.293 0.551,0.65 0.738,1.072c0.188,0.422 0.281,0.879 0.281,1.371c0,0.469 -0.093,0.908 -0.281,1.318c-0.187,0.411 -0.433,0.768 -0.738,1.073c-0.305,0.304 -0.662,0.545 -1.072,0.72c-0.41,0.176 -0.85,0.264 -1.319,0.264Z" style="fill:url(#_connectloki_Linear5);fill-rule:nonzero;"/><path d="M352.113,146.69c0,5.954 -1.054,10.477 -3.164,13.571c-2.109,3.093 -5.472,4.64 -10.09,4.64c-1.64,0 -3.293,-0.398 -4.957,-1.195l0,-4.359c1.828,1.078 3.563,1.617 5.203,1.617c5.672,0 8.508,-4.5 8.508,-13.5l0,-35.508l4.5,0l0,34.734Zm-2.285,-43.839c-0.867,0 -1.617,-0.305 -2.25,-0.915c-0.633,-0.609 -0.949,-1.382 -0.949,-2.32c0,-0.914 0.316,-1.67 0.949,-2.267c0.633,-0.598 1.383,-0.897 2.25,-0.897c0.445,0 0.867,0.076 1.266,0.229c0.398,0.152 0.744,0.369 1.037,0.65c0.293,0.281 0.527,0.615 0.703,1.002c0.176,0.387 0.264,0.814 0.264,1.283c0,0.445 -0.082,0.867 -0.246,1.266c-0.164,0.398 -0.399,0.744 -0.704,1.037c-0.304,0.293 -0.65,0.521 -1.037,0.685c-0.386,0.165 -0.814,0.247 -1.283,0.247Z" style="fill:url(#_connectloki_Linear6);fill-rule:nonzero;"/><path d="M361.676,141.487c0.679,0.539 1.418,1.02 2.215,1.442c0.797,0.422 1.617,0.785 2.461,1.09c0.843,0.304 1.693,0.533 2.548,0.685c0.856,0.152 1.67,0.229 2.444,0.229c5.343,0 8.015,-2.004 8.015,-6.012c0,-0.914 -0.187,-1.705 -0.562,-2.373c-0.375,-0.668 -0.914,-1.278 -1.617,-1.828c-0.703,-0.551 -1.547,-1.061 -2.532,-1.53c-0.984,-0.468 -2.097,-0.961 -3.339,-1.476c-1.664,-0.68 -3.094,-1.371 -4.289,-2.074c-1.196,-0.704 -2.18,-1.471 -2.954,-2.303c-0.773,-0.832 -1.347,-1.746 -1.722,-2.742c-0.375,-0.996 -0.563,-2.127 -0.563,-3.393c0,-1.594 0.346,-3.012 1.037,-4.254c0.692,-1.242 1.623,-2.297 2.795,-3.164c1.172,-0.867 2.526,-1.529 4.061,-1.986c1.535,-0.457 3.146,-0.686 4.834,-0.686c3.117,0 5.836,0.586 8.156,1.758l0,4.746c-2.695,-1.734 -5.601,-2.601 -8.719,-2.601c-1.125,0 -2.15,0.14 -3.076,0.421c-0.926,0.282 -1.717,0.68 -2.373,1.196c-0.656,0.515 -1.166,1.131 -1.529,1.845c-0.363,0.715 -0.545,1.506 -0.545,2.374c0,0.89 0.14,1.669 0.422,2.337c0.281,0.668 0.72,1.272 1.318,1.811c0.598,0.539 1.371,1.055 2.32,1.547c0.95,0.492 2.104,1.019 3.463,1.582c1.735,0.703 3.235,1.4 4.5,2.092c1.266,0.691 2.309,1.441 3.129,2.25c0.821,0.808 1.43,1.711 1.828,2.707c0.399,0.996 0.598,2.15 0.598,3.463c0,1.617 -0.334,3.058 -1.002,4.324c-0.668,1.265 -1.594,2.332 -2.777,3.199c-1.184,0.867 -2.573,1.523 -4.166,1.969c-1.594,0.445 -3.328,0.668 -5.203,0.668c-3.633,0 -6.692,-0.762 -9.176,-2.285l0,-5.028Z" style="fill:url(#_connectloki_Linear7);fill-rule:nonzero;"/></g><g><path d="M31.734,110.907l0,-2.32c1.178,0.87 2.474,1.305 3.89,1.305c1.898,0 2.847,-0.633 2.847,-1.898c0,-0.361 -0.081,-0.666 -0.244,-0.917c-0.162,-0.25 -0.382,-0.472 -0.659,-0.665c-0.277,-0.194 -0.602,-0.367 -0.975,-0.521c-0.374,-0.154 -0.776,-0.314 -1.207,-0.481c-0.597,-0.238 -1.123,-0.477 -1.575,-0.719c-0.453,-0.242 -0.831,-0.514 -1.134,-0.817c-0.303,-0.303 -0.532,-0.648 -0.686,-1.035c-0.153,-0.387 -0.23,-0.84 -0.23,-1.358c0,-0.633 0.145,-1.193 0.435,-1.681c0.29,-0.488 0.677,-0.896 1.16,-1.226c0.483,-0.33 1.035,-0.578 1.654,-0.745c0.62,-0.167 1.26,-0.25 1.919,-0.25c1.169,0 2.215,0.202 3.137,0.606l0,2.188c-0.993,-0.65 -2.135,-0.975 -3.427,-0.975c-0.405,0 -0.769,0.046 -1.095,0.138c-0.325,0.093 -0.604,0.222 -0.837,0.389c-0.233,0.167 -0.413,0.367 -0.54,0.6c-0.128,0.233 -0.191,0.49 -0.191,0.771c0,0.352 0.063,0.646 0.191,0.884c0.127,0.237 0.314,0.448 0.56,0.632c0.246,0.185 0.545,0.352 0.897,0.501c0.351,0.15 0.751,0.312 1.199,0.488c0.598,0.229 1.134,0.464 1.609,0.706c0.474,0.241 0.879,0.514 1.213,0.817c0.334,0.303 0.591,0.653 0.771,1.048c0.18,0.396 0.27,0.866 0.27,1.411c0,0.668 -0.147,1.248 -0.442,1.74c-0.294,0.492 -0.687,0.901 -1.18,1.226c-0.492,0.325 -1.059,0.567 -1.7,0.725c-0.642,0.158 -1.314,0.237 -2.017,0.237c-1.389,0 -2.593,-0.268 -3.613,-0.804Z" style="fill:url(#_connectloki_Linear8);fill-rule:nonzero;"/><path d="M54.858,105.186l-9.531,0c0.035,1.502 0.439,2.663 1.213,3.48c0.773,0.817 1.836,1.226 3.19,1.226c1.52,0 2.918,-0.501 4.192,-1.503l0,2.03c-1.186,0.862 -2.755,1.292 -4.706,1.292c-1.907,0 -3.406,-0.613 -4.496,-1.839c-1.09,-1.226 -1.635,-2.951 -1.635,-5.174c0,-2.101 0.596,-3.813 1.787,-5.135c1.191,-1.323 2.67,-1.984 4.436,-1.984c1.767,0 3.133,0.571 4.1,1.713c0.967,1.143 1.45,2.729 1.45,4.76l0,1.134Zm-2.214,-1.833c-0.009,-1.248 -0.31,-2.219 -0.904,-2.914c-0.593,-0.694 -1.417,-1.041 -2.471,-1.041c-1.02,0 -1.886,0.365 -2.598,1.094c-0.712,0.73 -1.151,1.683 -1.318,2.861l7.291,0Z" style="fill:url(#_connectloki_Linear9);fill-rule:nonzero;"/><path d="M57.311,110.907l0,-2.32c1.177,0.87 2.474,1.305 3.889,1.305c1.898,0 2.847,-0.633 2.847,-1.898c0,-0.361 -0.081,-0.666 -0.244,-0.917c-0.162,-0.25 -0.382,-0.472 -0.659,-0.665c-0.277,-0.194 -0.602,-0.367 -0.975,-0.521c-0.374,-0.154 -0.776,-0.314 -1.207,-0.481c-0.597,-0.238 -1.122,-0.477 -1.575,-0.719c-0.453,-0.242 -0.831,-0.514 -1.134,-0.817c-0.303,-0.303 -0.532,-0.648 -0.685,-1.035c-0.154,-0.387 -0.231,-0.84 -0.231,-1.358c0,-0.633 0.145,-1.193 0.435,-1.681c0.29,-0.488 0.677,-0.896 1.16,-1.226c0.484,-0.33 1.035,-0.578 1.655,-0.745c0.619,-0.167 1.259,-0.25 1.918,-0.25c1.169,0 2.215,0.202 3.138,0.606l0,2.188c-0.994,-0.65 -2.136,-0.975 -3.428,-0.975c-0.404,0 -0.769,0.046 -1.094,0.138c-0.326,0.093 -0.605,0.222 -0.838,0.389c-0.232,0.167 -0.413,0.367 -0.54,0.6c-0.128,0.233 -0.191,0.49 -0.191,0.771c0,0.352 0.063,0.646 0.191,0.884c0.127,0.237 0.314,0.448 0.56,0.632c0.246,0.185 0.545,0.352 0.897,0.501c0.351,0.15 0.751,0.312 1.199,0.488c0.598,0.229 1.134,0.464 1.609,0.706c0.474,0.241 0.879,0.514 1.213,0.817c0.334,0.303 0.591,0.653 0.771,1.048c0.18,0.396 0.27,0.866 0.27,1.411c0,0.668 -0.147,1.248 -0.441,1.74c-0.295,0.492 -0.688,0.901 -1.18,1.226c-0.493,0.325 -1.059,0.567 -1.701,0.725c-0.642,0.158 -1.314,0.237 -2.017,0.237c-1.389,0 -2.593,-0.268 -3.612,-0.804Z" style="fill:url(#_connectloki_Linear10);fill-rule:nonzero;"/><path d="M68.767,110.907l0,-2.32c1.178,0.87 2.474,1.305 3.889,1.305c1.899,0 2.848,-0.633 2.848,-1.898c0,-0.361 -0.081,-0.666 -0.244,-0.917c-0.163,-0.25 -0.382,-0.472 -0.659,-0.665c-0.277,-0.194 -0.602,-0.367 -0.976,-0.521c-0.373,-0.154 -0.775,-0.314 -1.206,-0.481c-0.598,-0.238 -1.123,-0.477 -1.575,-0.719c-0.453,-0.242 -0.831,-0.514 -1.134,-0.817c-0.304,-0.303 -0.532,-0.648 -0.686,-1.035c-0.154,-0.387 -0.231,-0.84 -0.231,-1.358c0,-0.633 0.145,-1.193 0.436,-1.681c0.29,-0.488 0.676,-0.896 1.16,-1.226c0.483,-0.33 1.035,-0.578 1.654,-0.745c0.62,-0.167 1.259,-0.25 1.918,-0.25c1.169,0 2.215,0.202 3.138,0.606l0,2.188c-0.993,-0.65 -2.136,-0.975 -3.428,-0.975c-0.404,0 -0.769,0.046 -1.094,0.138c-0.325,0.093 -0.604,0.222 -0.837,0.389c-0.233,0.167 -0.413,0.367 -0.541,0.6c-0.127,0.233 -0.191,0.49 -0.191,0.771c0,0.352 0.064,0.646 0.191,0.884c0.128,0.237 0.315,0.448 0.561,0.632c0.246,0.185 0.545,0.352 0.896,0.501c0.352,0.15 0.752,0.312 1.2,0.488c0.598,0.229 1.134,0.464 1.608,0.706c0.475,0.241 0.879,0.514 1.213,0.817c0.334,0.303 0.591,0.653 0.771,1.048c0.181,0.396 0.271,0.866 0.271,1.411c0,0.668 -0.147,1.248 -0.442,1.74c-0.294,0.492 -0.688,0.901 -1.18,1.226c-0.492,0.325 -1.059,0.567 -1.701,0.725c-0.641,0.158 -1.313,0.237 -2.017,0.237c-1.388,0 -2.592,-0.268 -3.612,-0.804Z" style="fill:url(#_connectloki_Linear11);fill-rule:nonzero;"/><path d="M82.148,94.467c-0.386,0 -0.716,-0.132 -0.988,-0.395c-0.273,-0.264 -0.409,-0.598 -0.409,-1.002c0,-0.405 0.136,-0.741 0.409,-1.009c0.272,-0.268 0.602,-0.402 0.988,-0.402c0.396,0 0.732,0.134 1.009,0.402c0.277,0.268 0.415,0.604 0.415,1.009c0,0.387 -0.138,0.716 -0.415,0.989c-0.277,0.272 -0.613,0.408 -1.009,0.408Zm1.055,16.928l-2.162,0l0,-13.5l2.162,0l0,13.5Z" style="fill:url(#_connectloki_Linear12);fill-rule:nonzero;"/><path d="M93.223,111.711c-1.995,0 -3.588,-0.63 -4.779,-1.891c-1.191,-1.262 -1.787,-2.934 -1.787,-5.017c0,-2.267 0.62,-4.038 1.859,-5.313c1.239,-1.274 2.914,-1.911 5.023,-1.911c2.013,0 3.584,0.619 4.713,1.858c1.13,1.24 1.694,2.958 1.694,5.155c0,2.154 -0.608,3.878 -1.826,5.175c-1.217,1.296 -2.849,1.944 -4.897,1.944Zm0.158,-12.313c-1.389,0 -2.487,0.472 -3.296,1.417c-0.809,0.945 -1.213,2.248 -1.213,3.909c0,1.6 0.409,2.861 1.226,3.784c0.818,0.923 1.912,1.384 3.283,1.384c1.397,0 2.472,-0.453 3.223,-1.358c0.752,-0.905 1.127,-2.193 1.127,-3.863c0,-1.687 -0.375,-2.988 -1.127,-3.902c-0.751,-0.914 -1.826,-1.371 -3.223,-1.371Z" style="fill:url(#_connectloki_Linear13);fill-rule:nonzero;"/><path d="M114.606,111.395l-2.162,0l0,-7.699c0,-2.865 -1.046,-4.298 -3.137,-4.298c-1.081,0 -1.976,0.406 -2.683,1.219c-0.708,0.813 -1.062,1.84 -1.062,3.079l0,7.699l-2.162,0l0,-13.5l2.162,0l0,2.241l0.053,0c1.02,-1.705 2.496,-2.557 4.43,-2.557c1.476,0 2.606,0.476 3.388,1.43c0.782,0.954 1.173,2.331 1.173,4.133l0,8.253Z" style="fill:url(#_connectloki_Linear14);fill-rule:nonzero;"/><path d="M125.259,110.907l0,-2.32c1.178,0.87 2.474,1.305 3.889,1.305c1.898,0 2.848,-0.633 2.848,-1.898c0,-0.361 -0.082,-0.666 -0.244,-0.917c-0.163,-0.25 -0.383,-0.472 -0.659,-0.665c-0.277,-0.194 -0.603,-0.367 -0.976,-0.521c-0.374,-0.154 -0.776,-0.314 -1.206,-0.481c-0.598,-0.238 -1.123,-0.477 -1.576,-0.719c-0.452,-0.242 -0.83,-0.514 -1.134,-0.817c-0.303,-0.303 -0.531,-0.648 -0.685,-1.035c-0.154,-0.387 -0.231,-0.84 -0.231,-1.358c0,-0.633 0.145,-1.193 0.435,-1.681c0.29,-0.488 0.677,-0.896 1.16,-1.226c0.484,-0.33 1.035,-0.578 1.655,-0.745c0.62,-0.167 1.259,-0.25 1.918,-0.25c1.169,0 2.215,0.202 3.138,0.606l0,2.188c-0.993,-0.65 -2.136,-0.975 -3.428,-0.975c-0.404,0 -0.769,0.046 -1.094,0.138c-0.325,0.093 -0.604,0.222 -0.837,0.389c-0.233,0.167 -0.413,0.367 -0.541,0.6c-0.127,0.233 -0.191,0.49 -0.191,0.771c0,0.352 0.064,0.646 0.191,0.884c0.128,0.237 0.314,0.448 0.56,0.632c0.247,0.185 0.545,0.352 0.897,0.501c0.352,0.15 0.751,0.312 1.2,0.488c0.597,0.229 1.133,0.464 1.608,0.706c0.475,0.241 0.879,0.514 1.213,0.817c0.334,0.303 0.591,0.653 0.771,1.048c0.18,0.396 0.27,0.866 0.27,1.411c0,0.668 -0.147,1.248 -0.441,1.74c-0.295,0.492 -0.688,0.901 -1.18,1.226c-0.492,0.325 -1.059,0.567 -1.701,0.725c-0.641,0.158 -1.314,0.237 -2.017,0.237c-1.389,0 -2.593,-0.268 -3.612,-0.804Z" style="fill:url(#_connectloki_Linear15);fill-rule:nonzero;"/><path d="M143.795,111.263c-0.51,0.281 -1.182,0.422 -2.017,0.422c-2.364,0 -3.547,-1.318 -3.547,-3.955l0,-7.989l-2.32,0l0,-1.846l2.32,0l0,-3.296l2.163,-0.699l0,3.995l3.401,0l0,1.846l-3.401,0l0,7.607c0,0.905 0.153,1.551 0.461,1.938c0.308,0.386 0.817,0.58 1.529,0.58c0.545,0 1.015,-0.15 1.411,-0.449l0,1.846Z" style="fill:url(#_connectloki_Linear16);fill-rule:nonzero;"/><path d="M152.114,111.711c-1.995,0 -3.588,-0.63 -4.779,-1.891c-1.191,-1.262 -1.787,-2.934 -1.787,-5.017c0,-2.267 0.62,-4.038 1.859,-5.313c1.239,-1.274 2.914,-1.911 5.023,-1.911c2.013,0 3.584,0.619 4.713,1.858c1.13,1.24 1.694,2.958 1.694,5.155c0,2.154 -0.608,3.878 -1.826,5.175c-1.217,1.296 -2.849,1.944 -4.897,1.944Zm0.158,-12.313c-1.389,0 -2.487,0.472 -3.296,1.417c-0.809,0.945 -1.213,2.248 -1.213,3.909c0,1.6 0.409,2.861 1.226,3.784c0.818,0.923 1.912,1.384 3.283,1.384c1.397,0 2.472,-0.453 3.223,-1.358c0.752,-0.905 1.128,-2.193 1.128,-3.863c0,-1.687 -0.376,-2.988 -1.128,-3.902c-0.751,-0.914 -1.826,-1.371 -3.223,-1.371Z" style="fill:url(#_connectloki_Linear17);fill-rule:nonzero;"/><path d="M169.332,100.083c-0.378,-0.29 -0.923,-0.435 -1.635,-0.435c-0.923,0 -1.694,0.435 -2.314,1.306c-0.62,0.87 -0.929,2.056 -0.929,3.559l0,6.882l-2.162,0l0,-13.5l2.162,0l0,2.782l0.052,0c0.308,-0.95 0.778,-1.69 1.411,-2.222c0.633,-0.531 1.34,-0.797 2.123,-0.797c0.562,0 0.993,0.061 1.292,0.184l0,2.241Z" style="fill:url(#_connectloki_Linear18);fill-rule:nonzero;"/><path d="M182.172,105.186l-9.531,0c0.035,1.502 0.439,2.663 1.213,3.48c0.773,0.817 1.836,1.226 3.19,1.226c1.52,0 2.918,-0.501 4.192,-1.503l0,2.03c-1.186,0.862 -2.755,1.292 -4.706,1.292c-1.907,0 -3.406,-0.613 -4.496,-1.839c-1.09,-1.226 -1.635,-2.951 -1.635,-5.174c0,-2.101 0.596,-3.813 1.787,-5.135c1.191,-1.323 2.669,-1.984 4.436,-1.984c1.767,0 3.133,0.571 4.1,1.713c0.967,1.143 1.45,2.729 1.45,4.76l0,1.134Zm-2.214,-1.833c-0.009,-1.248 -0.31,-2.219 -0.904,-2.914c-0.593,-0.694 -1.417,-1.041 -2.471,-1.041c-1.02,0 -1.886,0.365 -2.598,1.094c-0.712,0.73 -1.151,1.683 -1.318,2.861l7.291,0Z" style="fill:url(#_connectloki_Linear19);fill-rule:nonzero;"/></g><defs><linearGradient id="_connectloki_Linear1" x1="0" y1="0" x2="1" y2="0" gradientUnits="userSpaceOnUse" gradientTransform="matrix(4.29894e-15,70.207,-70.207,4.29894e-15,280.81,94.6591)"><stop offset="0" style="stop-color:#000;stop-opacity:1"/><stop offset="1" style="stop-color:#066edc;stop-opacity:1"/></linearGradient><linearGradient id="_connectloki_Linear2" x1="0" y1="0" x2="1" y2="0" gradientUnits="userSpaceOnUse" gradientTransform="matrix(4.29894e-15,70.207,-70.207,4.29894e-15,280.81,94.6591)"><stop offset="0" style="stop-color:#000;stop-opacity:1"/><stop offset="1" style="stop-color:#066edc;stop-opacity:1"/></linearGradient><linearGradient id="_connectloki_Linear3" x1="0" y1="0" x2="1" y2="0" gradientUnits="userSpaceOnUse" gradientTransform="matrix(4.29894e-15,70.207,-70.207,4.29894e-15,280.81,94.6591)"><stop offset="0" style="stop-color:#000;stop-opacity:1"/><stop offset="1" style="stop-color:#066edc;stop-opacity:1"/></linearGradient><linearGradient id="_connectloki_Linear4" x1="0" y1="0" x2="1" y2="0" gradientUnits="userSpaceOnUse" gradientTransform="matrix(4.29894e-15,70.207,-70.207,4.29894e-15,280.81,94.6591)"><stop offset="0" style="stop-color:#000;stop-opacity:1"/><stop offset="1" style="stop-color:#066edc;stop-opacity:1"/></linearGradient><linearGradient id="_connectloki_Linear5" x1="0" y1="0" x2="1" y2="0" gradientUnits="userSpaceOnUse" gradientTransform="matrix(4.29894e-15,70.207,-70.207,4.29894e-15,280.81,94.6591)"><stop offset="0" style="stop-color:#000;stop-opacity:1"/><stop offset="1" style="stop-color:#066edc;stop-opacity:1"/></linearGradient><linearGradient id="_connectloki_Linear6" x1="0" y1="0" x2="1" y2="0" gradientUnits="userSpaceOnUse" gradientTransform="matrix(4.29894e-15,70.207,-70.207,4.29894e-15,280.81,94.6591)"><stop offset="0" style="stop-color:#000;stop-opacity:1"/><stop offset="1" style="stop-color:#066edc;stop-opacity:1"/></linearGradient><linearGradient id="_connectloki_Linear7" x1="0" y1="0" x2="1" y2="0" gradientUnits="userSpaceOnUse" gradientTransform="matrix(4.29894e-15,70.207,-70.207,4.29894e-15,280.81,94.6591)"><stop offset="0" style="stop-color:#000;stop-opacity:1"/><stop offset="1" style="stop-color:#066edc;stop-opacity:1"/></linearGradient><linearGradient id="_connectloki_Linear8" x1="0" y1="0" x2="1" y2="0" gradientUnits="userSpaceOnUse" gradientTransform="matrix(4.29894e-15,70.207,-70.207,4.29894e-15,109.81,58.0981)"><stop offset="0" style="stop-color:#000;stop-opacity:1"/><stop offset="1" style="stop-color:#066edc;stop-opacity:1"/></linearGradient><linearGradient id="_connectloki_Linear9" x1="0" y1="0" x2="1" y2="0" gradientUnits="userSpaceOnUse" gradientTransform="matrix(4.29894e-15,70.207,-70.207,4.29894e-15,109.81,58.0981)"><stop offset="0" style="stop-color:#000;stop-opacity:1"/><stop offset="1" style="stop-color:#066edc;stop-opacity:1"/></linearGradient><linearGradient id="_connectloki_Linear10" x1="0" y1="0" x2="1" y2="0" gradientUnits="userSpaceOnUse" gradientTransform="matrix(4.29894e-15,70.207,-70.207,4.29894e-15,109.81,58.0981)"><stop offset="0" style="stop-color:#000;stop-opacity:1"/><stop offset="1" style="stop-color:#066edc;stop-opacity:1"/></linearGradient><linearGradient id="_connectloki_Linear11" x1="0" y1="0" x2="1" y2="0" gradientUnits="userSpaceOnUse" gradientTransform="matrix(4.29894e-15,70.207,-70.207,4.29894e-15,109.81,58.0981)"><stop offset="0" style="stop-color:#000;stop-opacity:1"/><stop offset="1" style="stop-color:#066edc;stop-opacity:1"/></linearGradient><linearGradient id="_connectloki_Linear12" x1="0" y1="0" x2="1" y2="0" gradientUnits="userSpaceOnUse" gradientTransform="matrix(4.29894e-15,70.207,-70.207,4.29894e-15,109.81,58.0981)"><stop offset="0" style="stop-color:#000;stop-opacity:1"/><stop offset="1" style="stop-color:#066edc;stop-opacity:1"/></linearGradient><linearGradient id="_connectloki_Linear13" x1="0" y1="0" x2="1" y2="0" gradientUnits="userSpaceOnUse" gradientTransform="matrix(4.29894e-15,70.207,-70.207,4.29894e-15,109.81,58.0981)"><stop offset="0" style="stop-color:#000;stop-opacity:1"/><stop offset="1" style="stop-color:#066edc;stop-opacity:1"/></linearGradient><linearGradient id="_connectloki_Linear14" x1="0" y1="0" x2="1" y2="0" gradientUnits="userSpaceOnUse" gradientTransform="matrix(4.29894e-15,70.207,-70.207,4.29894e-15,109.81,58.0981)"><stop offset="0" style="stop-color:#000;stop-opacity:1"/><stop offset="1" style="stop-color:#066edc;stop-opacity:1"/></linearGradient><linearGradient id="_connectloki_Linear15" x1="0" y1="0" x2="1" y2="0" gradientUnits="userSpaceOnUse" gradientTransform="matrix(4.29894e-15,70.207,-70.207,4.29894e-15,109.81,58.0981)"><stop offset="0" style="stop-color:#000;stop-opacity:1"/><stop offset="1" style="stop-color:#066edc;stop-opacity:1"/></linearGradient><linearGradient id="_connectloki_Linear16" x1="0" y1="0" x2="1" y2="0" gradientUnits="userSpaceOnUse" gradientTransform="matrix(4.29894e-15,70.207,-70.207,4.29894e-15,109.81,58.0981)"><stop offset="0" style="stop-color:#000;stop-opacity:1"/><stop offset="1" style="stop-color:#066edc;stop-opacity:1"/></linearGradient><linearGradient id="_connectloki_Linear17" x1="0" y1="0" x2="1" y2="0" gradientUnits="userSpaceOnUse" gradientTransform="matrix(4.29894e-15,70.207,-70.207,4.29894e-15,109.81,58.0981)"><stop offset="0" style="stop-color:#000;stop-opacity:1"/><stop offset="1" style="stop-color:#066edc;stop-opacity:1"/></linearGradient><linearGradient id="_connectloki_Linear18" x1="0" y1="0" x2="1" y2="0" gradientUnits="userSpaceOnUse" gradientTransform="matrix(4.29894e-15,70.207,-70.207,4.29894e-15,109.81,58.0981)"><stop offset="0" style="stop-color:#000;stop-opacity:1"/><stop offset="1" style="stop-color:#066edc;stop-opacity:1"/></linearGradient><linearGradient id="_connectloki_Linear19" x1="0" y1="0" x2="1" y2="0" gradientUnits="userSpaceOnUse" gradientTransform="matrix(4.29894e-15,70.207,-70.207,4.29894e-15,109.81,58.0981)"><stop offset="0" style="stop-color:#000;stop-opacity:1"/><stop offset="1" style="stop-color:#066edc;stop-opacity:1"/></linearGradient></defs></svg>
